<svg aria-hidden="true" style="position: absolute; width: 0; height: 0; overflow: hidden;" version="1.1"
    xmlns="http://www.w3.org/2000/svg" xmlns:xlink="http://www.w3.org/1999/xlink">
    <defs>
        <symbol id="logo" viewBox="0 0 23 32">
            <path
                d="M14.043 0.393c-0.21 0.223-0.709 0.694-1.107 1.057-1.326 1.196-1.596 1.624-1.632 2.603-0.027 0.795 0.165 1.397 0.663 2.083 0.133 0.183 0.242 0.323 0.242 0.306 0-0.013-0.082-0.183-0.183-0.376-0.384-0.734-0.498-1.624-0.288-2.258 0.197-0.594 0.485-0.952 1.459-1.812 0.206-0.179 0.457-0.428 0.562-0.546l0.197-0.218-0.027 0.917c-0.014 0.607-0.046 1.026-0.096 1.244-0.169 0.738-0.498 1.323-1.097 1.965-0.434 0.467-0.558 0.734-0.439 0.952 0.018 0.039 0.050 0.205 0.069 0.362l0.027 0.288-0.261 0.166c-0.882 0.559-1.504 1.367-1.756 2.284-0.069 0.245-0.096 0.48-0.096 0.86-0.005 0.808 0.151 1.48 0.544 2.327l0.206 0.445-0.073 0.349c-0.073 0.354-0.096 1.406-0.032 1.681 0.023 0.109 0.050 0.131 0.165 0.131h0.137l0.032-0.563c0.119-2.009 0.814-3.175 2.446-4.105 1.257-0.716 1.628-1.118 2.465-2.672 0.658-1.236 0.869-1.563 1.376-2.188l0.288-0.354-0.407 0.166c-0.658 0.271-1.605 0.541-2.748 0.786-1.097 0.231-1.596 0.367-1.975 0.55-0.119 0.057-0.229 0.105-0.242 0.105s-0.018-0.175-0.005-0.393c0.023-0.467 0.027-0.476 0.736-1.183 0.384-0.38 0.544-0.581 0.677-0.83 0.293-0.555 0.316-0.716 0.284-1.786-0.032-1.004 0.023-1.659 0.206-2.389 0.046-0.188 0.082-0.345 0.078-0.349s-0.183 0.175-0.393 0.393zM16.151 7.24c-0.919 1.616-1.559 2.301-3.027 3.249-0.288 0.188-0.626 0.424-0.75 0.52-0.453 0.358-0.969 1.065-1.166 1.594-0.046 0.127-0.096 0.214-0.11 0.192-0.073-0.109-0.27-1-0.316-1.415-0.151-1.376 0.384-2.581 1.509-3.389 0.645-0.467 1.23-0.681 2.41-0.886 0.503-0.087 1.303-0.31 1.646-0.454 0.078-0.031 0.142-0.052 0.151-0.048 0.005 0.004-0.151 0.293-0.348 0.638zM5.998 1.484c0.273 0.984 0.354 2.274 0.223 3.481-0.164 1.504-0.027 1.959 0.945 3.196 0.264 0.332 0.559 0.765 0.664 0.958 0.295 0.573 0.455 1.386 0.459 2.366v0.407l-0.109-0.044c-0.255-0.092-0.714-0.131-1.868-0.153-0.673-0.013-1.368-0.044-1.545-0.061-0.173-0.022-0.323-0.031-0.327-0.026-0.009 0.004 0.082 0.074 0.205 0.157 0.514 0.354 1.032 0.813 1.632 1.447 0.354 0.372 0.777 0.783 0.945 0.91 0.718 0.547 1.541 0.866 2.536 0.979 0.409 0.048 0.245-0.101-0.445-0.389-1.1-0.463-1.65-0.84-2.495-1.701-0.318-0.324-0.704-0.669-0.854-0.77l-0.273-0.175h0.536c1.409 0 2.204 0.262 2.881 0.949 0.336 0.337 0.577 0.756 0.7 1.207 0.036 0.144 0.077 0.271 0.091 0.284 0.045 0.039 0.032-0.516-0.018-0.822-0.105-0.634-0.632-1.334-1.236-1.64l-0.264-0.131v-0.722c0-1.434-0.132-1.928-0.823-3.048-0.914-1.487-1.063-2.073-1.036-4.132 0.009-0.638 0.023-1.163 0.027-1.159 0 0.004 0.095 0.127 0.205 0.271 0.114 0.144 0.518 0.577 0.904 0.962 0.936 0.931 1.295 1.469 1.518 2.278 0.25 0.888 0.045 2.13-0.545 3.328-0.109 0.223-0.191 0.407-0.186 0.407 0.009 0 0.086-0.105 0.177-0.236 0.714-1.032 1.073-2.195 1.018-3.284-0.032-0.595-0.155-1.058-0.414-1.574-0.264-0.533-0.568-0.91-1.45-1.788-0.686-0.687-1.159-1.194-1.654-1.754l-0.191-0.219 0.068 0.24z">
            </path>
            <path
                d="M14.194 12.201c-1.044 0.213-1.754 1.1-1.758 2.186 0 0.217-0.009 0.235-0.142 0.278-0.238 0.078-0.064 0.117 0.673 0.148 1.053 0.043 1.699-0.074 2.248-0.413 0.151-0.091 0.531-0.383 0.847-0.648 0.641-0.53 0.971-0.756 1.511-1.030l0.362-0.183-0.44-0.030c-0.238-0.013-0.664-0.070-0.948-0.117s-0.733-0.126-0.998-0.17c-0.559-0.096-0.962-0.104-1.355-0.022zM15.705 12.745c0.224 0.052 0.572 0.109 0.765 0.122l0.357 0.030-0.499 0.383c-0.76 0.582-1.264 0.848-1.909 1.004-0.33 0.083-1.804 0.296-1.836 0.265-0.041-0.039 0.092-0.443 0.252-0.761 0.279-0.552 0.806-0.948 1.47-1.108 0.339-0.083 0.87-0.057 1.401 0.065zM3.979 16.957c-0.055 2.362 0.073 3.16 0.692 4.35 0.325 0.623 0.853 1.352 1.228 1.694 0.092 0.083 0.165 0.162 0.165 0.176 0 0.018-1.141 0.022-2.53 0.013-1.393-0.009-2.581 0-2.64 0.013-0.055 0.013-0.128 0.075-0.156 0.132-0.041 0.092-0.037 0.123 0.032 0.198 0.083 0.088 0.133 0.088 10.346 0.088 6.99 0 10.291-0.013 10.355-0.044 0.119-0.061 0.119-0.29 0-0.351-0.060-0.026-1.004-0.044-2.755-0.044h-2.663l0.28-0.32c0.798-0.9 1.316-1.887 1.655-3.147 0.096-0.347 0.105-0.496 0.119-2.252l0.023-1.874h-14.118l-0.032 1.37zM2.077 24.215c1.549 0.698 3.936 1.267 6.163 1.47 0.394 0.039 0.573 0.069 0.504 0.086-0.096 0.026-0.101 0.030-0.023 0.034 0.050 0.004 0.362 0.026 0.687 0.052 1.677 0.116 5.27 0.047 5.169-0.103-0.014-0.022-0.009-0.030 0.018-0.017 0.023 0.013 0.105 0.009 0.179-0.013 0.128-0.034 0.128-0.034-0.050-0.043-0.11-0.004 0.124-0.056 0.573-0.129 1.398-0.224 2.548-0.496 3.492-0.823 0.541-0.19 1.59-0.621 1.663-0.69 0.023-0.022-3.556-0.039-9.394-0.034l-9.44 0.004 0.458 0.207zM1.776 30.614h-0.062c-0.002 0-0.007 0.001-0.016 0.003s-0.018 0.005-0.025 0.008l0.001-0-0.027 0.006c-0.009 0.002-0.014 0.002-0.016 0.002-0.091 0.009-0.183 0.014-0.276 0.016-0.093 0.004-0.186 0.006-0.279 0.006-0.020 0-0.045-0.001-0.075-0.003-0.029 0-0.056-0.004-0.083-0.011-0.027-0.009-0.050-0.021-0.070-0.038s-0.029-0.039-0.029-0.070c0-0.023 0.005-0.046 0.016-0.070s0.026-0.039 0.046-0.048c0.018-0.002 0.049-0.004 0.094-0.005s0.091-0.004 0.139-0.005c0.050-0.004 0.097-0.006 0.142-0.008 0.045-0.004 0.076-0.007 0.094-0.011h0.043c0.021-0.002 0.039-0.005 0.057-0.009l-0.004 0.001c0.020-0.005 0.037-0.012 0.051-0.019 0.016-0.007 0.029-0.017 0.038-0.029 0.021-0.045 0.032-0.092 0.032-0.142v-0.297c0-0.005 0.001-0.018 0.003-0.038 0.004-0.020 0.006-0.041 0.008-0.064 0.004-0.023 0.007-0.046 0.011-0.067s0.005-0.035 0.005-0.040c0.009-0.186 0.014-0.372 0.016-0.56 0.002-0.166 0.003-0.363 0.003-0.56v-0c0-0.079-0.001-0.155-0.003-0.23-0.002-0.067-0.003-0.146-0.003-0.225v0-0.131c0.002-0.063 0.003-0.127 0.003-0.193v-0.19c0.002-0.061 0.003-0.103 0.003-0.126-0.009-0.036-0.021-0.065-0.038-0.088-0.014-0.025-0.034-0.049-0.059-0.072-0.009-0.002-0.025-0.004-0.048-0.005-0.021-0.004-0.045-0.006-0.070-0.008-0.018-0.003-0.042-0.006-0.066-0.008l-0.003-0c-0.021-0.002-0.037-0.003-0.046-0.003-0.004 0-0.012 0.002-0.027 0.005-0.012 0.002-0.027 0.004-0.043 0.008-0.017 0.002-0.031 0.005-0.045 0.009l0.002-0.001c-0.014 0.002-0.023 0.003-0.027 0.003-0.011 0.002-0.033 0.003-0.067 0.003h-0.206c-0.032 0-0.055-0.001-0.070-0.003-0.027 0.011-0.056 0.019-0.088 0.024-0.032 0.004-0.063 0.015-0.091 0.035 0 0.004-0.005 0.011-0.016 0.021s-0.018 0.018-0.021 0.021c-0.014 0.016-0.034 0.038-0.059 0.067-0.020 0.022-0.042 0.049-0.065 0.077l-0.005 0.006c-0.023 0.029-0.045 0.054-0.064 0.075-0.018 0.021-0.028 0.033-0.029 0.035-0.013 0.016-0.025 0.038-0.037 0.067-0.011 0.027-0.023 0.054-0.037 0.080-0.014 0.025-0.031 0.047-0.051 0.067s-0.044 0.029-0.072 0.029c-0.021 0-0.037-0.005-0.046-0.016-0.009-0.012-0.016-0.027-0.021-0.043v-0.024c0-0.012-0.001-0.025-0.003-0.038v-0.129c0.002-0.012 0.003-0.023 0.003-0.032v-0.019c0.002-0.005 0.005-0.019 0.011-0.040 0.007-0.023 0.014-0.047 0.021-0.072s0.013-0.048 0.019-0.070c0.007-0.021 0.013-0.035 0.016-0.040 0-0.005 0.002-0.017 0.005-0.035s0.007-0.037 0.011-0.056c0.005-0.021 0.010-0.040 0.013-0.056 0.004-0.018 0.006-0.029 0.008-0.035 0-0.004 0.003-0.013 0.008-0.029 0.007-0.016 0.014-0.034 0.021-0.054 0.002-0.003 0.008-0.021 0.014-0.038l0.005-0.015c0.007-0.016 0.011-0.026 0.011-0.029 0.005-0.014 0.011-0.030 0.016-0.048 0.007-0.020 0.015-0.038 0.024-0.054 0.011-0.016 0.023-0.029 0.037-0.040 0.014-0.012 0.031-0.019 0.051-0.019 0.030 0 0.054 0.008 0.072 0.024 0.020 0.016 0.037 0.034 0.054 0.054s0.032 0.040 0.048 0.062c0.016 0.020 0.036 0.033 0.059 0.040 0.037 0 0.077-0.001 0.118-0.003 0.037-0.002 0.080-0.003 0.123-0.003 0 0 0 0 0 0h-0c0.077 0 0.153 0.002 0.228 0.005s0.149 0.012 0.222 0.024c0 0 0.004 0.002 0.011 0.005 0.007 0.002 0.014 0.004 0.021 0.008 0.011 0.002 0.019 0.004 0.027 0.006l-0.003-0.001c0.009 0.002 0.014 0.003 0.016 0.003h0.086c0.046 0 0.088-0.004 0.126-0.013 0.039-0.009 0.083-0.013 0.131-0.013h0.072c0.014 0 0.027 0.001 0.038 0.003 0.011 0 0.018 0.001 0.021 0.003 0.007 0 0.021 0.002 0.043 0.005 0.023 0.002 0.048 0.004 0.075 0.008 0.027 0.002 0.051 0.004 0.072 0.005 0.023 0.002 0.038 0.003 0.046 0.003 0.014-0.005 0.031-0.010 0.051-0.013 0.021-0.004 0.049-0.006 0.083-0.008 0.036-0.002 0.080-0.003 0.134-0.003 0.054-0.002 0.121-0.003 0.201-0.003l0.485 0.005c0.030 0 0.062-0.010 0.094-0.029 0.032-0.021 0.064-0.046 0.096-0.072 0.032-0.029 0.063-0.056 0.094-0.083 0.032-0.027 0.063-0.046 0.094-0.056h0.032c0.052 0 0.088 0.028 0.11 0.083 0.002 0.021 0.005 0.062 0.011 0.121 0.005 0.057 0.011 0.118 0.016 0.182 0.007 0.064 0.014 0.125 0.021 0.182s0.013 0.097 0.016 0.121c0 0.004 0.001 0.010 0.003 0.019s0.004 0.020 0.005 0.032c0.003 0.009 0.006 0.020 0.008 0.031l0 0.001c0.002 0.009 0.003 0.014 0.003 0.016v0.040c0 0.046-0.002 0.088-0.005 0.126s-0.008 0.080-0.013 0.129c-0.007 0.014-0.016 0.024-0.027 0.029-0.009 0.004-0.018 0.005-0.027 0.005-0.005 0-0.011-0.003-0.016-0.008-0.005-0.002-0.010-0.004-0.013-0.008-0.027-0.012-0.050-0.030-0.070-0.054-0.018-0.023-0.034-0.048-0.048-0.075-0.010-0.020-0.021-0.047-0.032-0.075l-0.003-0.008c-0.011-0.030-0.021-0.058-0.032-0.083-0.030-0.077-0.080-0.138-0.15-0.185-0.068-0.046-0.138-0.086-0.212-0.118-0.046-0.020-0.092-0.029-0.137-0.029s-0.093-0.004-0.145-0.011c-0.004 0-0.017-0.004-0.040-0.011-0.021-0.009-0.036-0.013-0.043-0.013h-0.257c-0.014 0-0.035 0.004-0.062 0.011-0.027 0.005-0.041 0.010-0.043 0.013-0.005 0.007-0.012 0.014-0.019 0.021-0.013 0.016-0.021 0.029-0.024 0.038-0.007 0.012-0.015 0.029-0.024 0.051-0.009 0.020-0.013 0.030-0.013 0.032-0.002 0.005-0.004 0.015-0.005 0.029-0.001 0.001-0.002 0.015-0.004 0.029l-0.001 0.012c0 0.014-0.001 0.029-0.003 0.043-0.002 0.012-0.004 0.021-0.005 0.027 0 0.029 0.001 0.078 0.003 0.147s0.003 0.145 0.003 0.225c0 0.080-0.001 0.156-0.003 0.228-0.002 0.070-0.003 0.117-0.003 0.142 0 0.091-0.007 0.18-0.021 0.268-0.013 0.086-0.019 0.174-0.019 0.265 0 0.098 0.003 0.196 0.008 0.295 0.007 0.096 0.011 0.196 0.011 0.297 0 0.123-0.004 0.247-0.011 0.372-0.005 0.112-0.008 0.243-0.008 0.375v0c0 0.038 0.008 0.067 0.024 0.088 0.018 0.021 0.040 0.038 0.067 0.048s0.056 0.018 0.088 0.021c0.034 0.004 0.066 0.006 0.096 0.008 0.014 0.002 0.037 0.004 0.067 0.005 0.032 0.002 0.065 0.004 0.099 0.005 0.036 0.002 0.069 0.004 0.099 0.005s0.052 0.003 0.064 0.003c0.034 0.012 0.059 0.032 0.075 0.059 0.018 0.027 0.027 0.056 0.027 0.088 0 0.041-0.012 0.073-0.035 0.097-0.023 0.021-0.053 0.044-0.088 0.067h-0.005c-0.066 0-0.128-0.005-0.185-0.016-0.055-0.009-0.114-0.018-0.177-0.027-0.191-0.027-0.384-0.040-0.579-0.040zM3.862 30.646c0-0.007-0.005-0.017-0.016-0.029-0.009-0.014-0.014-0.026-0.016-0.035v-0.013c0.004-0.007 0.012-0.018 0.024-0.032s0.026-0.029 0.040-0.043c0.016-0.016 0.030-0.030 0.043-0.043 0.014-0.012 0.024-0.021 0.029-0.027 0.004-0.004 0.015-0.007 0.035-0.011 0.021-0.005 0.037-0.008 0.046-0.008h0.19c0.005 0 0.013-0.001 0.021-0.003 0.011-0.004 0.021-0.006 0.029-0.008 0.011-0.004 0.020-0.007 0.027-0.011 0.009-0.004 0.013-0.005 0.013-0.005 0.025-0.012 0.039-0.032 0.043-0.059 0.005-0.029 0.008-0.055 0.008-0.080v-0.043c0-0.062-0.002-0.121-0.005-0.177-0.002-0.057-0.003-0.117-0.003-0.179v-0.019c0-0.005 0.001-0.015 0.003-0.029s0.004-0.029 0.005-0.046c0.004-0.018 0.007-0.034 0.011-0.048s0.006-0.024 0.008-0.029v-1.168c0-0.036-0.006-0.064-0.019-0.086s-0.029-0.038-0.048-0.048c-0.020-0.012-0.043-0.021-0.070-0.024-0.025-0.004-0.052-0.005-0.080-0.005h-0.11c-0.050 0-0.092-0.006-0.126-0.019s-0.051-0.043-0.051-0.091v-0.043c0.002-0.012 0.006-0.029 0.013-0.051 0.086 0.004 0.17 0.001 0.252-0.008s0.165-0.013 0.249-0.013h0.070c0.007 0.002 0.021 0.004 0.043 0.005 0.023 0.002 0.046 0.004 0.070 0.005 0.025 0.002 0.048 0.004 0.070 0.005s0.037 0.004 0.046 0.005h1.259c0.054 0 0.092 0.014 0.115 0.043 0.023 0.027 0.040 0.061 0.051 0.102v0.311c0 0.011-0.002 0.030-0.005 0.059-0.004 0.027-0.008 0.056-0.013 0.088-0.005 0.039-0.009 0.070-0.015 0.101l0.001-0.010c-0.004 0.029-0.006 0.049-0.008 0.062-0.004 0.005-0.010 0.013-0.019 0.024-0.009 0.009-0.015 0.013-0.019 0.013 0 0.004-0.002 0.005-0.005 0.005h-0.011c-0.005 0-0.008-0.002-0.008-0.005-0.030-0.021-0.054-0.046-0.070-0.072-0.014-0.025-0.028-0.054-0.039-0.084l-0.001-0.004c-0.007-0.017-0.017-0.048-0.026-0.078l-0.003-0.013c-0.009-0.030-0.022-0.059-0.040-0.086-0.004-0.007-0.015-0.019-0.035-0.035-0.018-0.018-0.028-0.028-0.029-0.029-0.004-0.004-0.012-0.013-0.024-0.029-0.011-0.016-0.023-0.033-0.038-0.051-0.013-0.020-0.025-0.038-0.037-0.054-0.011-0.016-0.018-0.026-0.021-0.029-0.007-0.016-0.015-0.024-0.024-0.024-0.002 0-0.008-0.001-0.019-0.003-0.009-0.002-0.020-0.004-0.032-0.005-0.009-0.003-0.020-0.006-0.031-0.008l-0.001-0c-0.009-0.002-0.013-0.004-0.013-0.005-0.005 0-0.015-0.002-0.029-0.005s-0.030-0.007-0.048-0.011c-0.027-0.006-0.042-0.009-0.058-0.013l0.012 0.003c-0.014-0.005-0.023-0.009-0.027-0.011h-0.013c-0.007 0-0.017 0.003-0.029 0.008-0.013 0.004-0.021 0.005-0.027 0.005h-0.008c-0.005-0.002-0.021-0.004-0.046-0.005-0.023-0.002-0.049-0.003-0.078-0.003-0.029-0.002-0.055-0.003-0.080-0.003-0.023-0.002-0.037-0.003-0.043-0.003h-0.008c-0.032 0-0.059 0.006-0.080 0.019s-0.039 0.029-0.054 0.048c-0.013 0.020-0.024 0.042-0.035 0.067-0.009 0.023-0.018 0.046-0.027 0.070-0.002 0.020-0.005 0.052-0.011 0.096-0.004 0.045-0.008 0.092-0.013 0.142-0.004 0.050-0.007 0.097-0.011 0.142s-0.005 0.076-0.005 0.094v0.035c0 0.009 0.001 0.024 0.003 0.046s0.004 0.045 0.005 0.070c0.002 0.023 0.004 0.046 0.005 0.070 0.004 0.021 0.006 0.036 0.008 0.043 0.013 0.016 0.027 0.032 0.043 0.048 0.018 0.016 0.037 0.027 0.056 0.032h0.147c0.061 0 0.113-0.001 0.158-0.003 0.046-0.002 0.102-0.007 0.166-0.016 0.002-0.004 0.004-0.010 0.008-0.019 0.004-0.010 0.009-0.019 0.014-0.028l-0 0.001c0.005-0.009 0.010-0.017 0.013-0.024s0.006-0.012 0.008-0.013c0.007-0.012 0.016-0.030 0.027-0.054 0.011-0.025 0.021-0.049 0.032-0.072 0.011-0.025 0.020-0.046 0.027-0.064 0.009-0.018 0.014-0.028 0.016-0.029 0.004-0.007 0.007-0.022 0.011-0.046 0.004-0.025 0.007-0.039 0.011-0.043 0.014-0.016 0.033-0.027 0.056-0.032s0.046-0.008 0.070-0.008c0.025 0 0.040 0.010 0.046 0.029 0.007 0.018 0.011 0.038 0.011 0.062v0.099c0 0.016-0.002 0.032-0.005 0.048-0.004 0.014-0.010 0.029-0.019 0.043-0.002 0.016-0.004 0.043-0.005 0.080s-0.004 0.077-0.005 0.118c-0.002 0.041-0.004 0.080-0.005 0.118-0.002 0.036-0.003 0.061-0.003 0.075v0.23c-0.002 0.004-0.004 0.012-0.005 0.024s-0.004 0.027-0.005 0.043c0 0.014-0.001 0.029-0.003 0.043s-0.004 0.024-0.005 0.029c-0.020 0.014-0.037 0.025-0.054 0.032-0.014 0.007-0.032 0.011-0.054 0.011-0.014 0-0.028-0.005-0.040-0.016-0.013-0.012-0.024-0.028-0.035-0.046s-0.020-0.036-0.027-0.054c-0.007-0.020-0.012-0.038-0.013-0.054-0.002-0.005-0.004-0.017-0.008-0.035 0 0.011-0.001-0.010-0.003-0.031l-0.002-0.030c-0.003-0.040-0.005-0.062-0.007-0.085l0.002 0.020c-0.002-0.020-0.003-0.034-0.003-0.043-0.005-0.007-0.015-0.013-0.029-0.019-0.013-0.007-0.025-0.014-0.037-0.021-0.011-0.004-0.028-0.008-0.051-0.013s-0.048-0.010-0.075-0.013c-0.025-0.005-0.049-0.009-0.072-0.011-0.021-0.004-0.036-0.005-0.043-0.005h-0.029c-0.013-0.002-0.028-0.003-0.046-0.003h-0.048c-0.016-0.002-0.029-0.003-0.038-0.003-0.005 0-0.014 0.001-0.027 0.003h-0.035c-0.011 0-0.021 0.001-0.029 0.003h-0.016l-0.037 0.043v0.091c0 0.105-0.004 0.207-0.011 0.305-0.007 0.096-0.011 0.197-0.011 0.303 0 0.054 0.004 0.093 0.013 0.118s0.023 0.043 0.043 0.054c0.020 0.011 0.045 0.019 0.075 0.024s0.068 0.014 0.112 0.027c0.004 0 0.010 0.003 0.019 0.008s0.015 0.011 0.019 0.016h0.407c0.004 0 0.012-0.001 0.024-0.003 0.013-0.004 0.026-0.006 0.040-0.008 0.014-0.004 0.027-0.006 0.038-0.008 0.013-0.004 0.021-0.005 0.024-0.005h0.179c0.004 0 0.010-0.003 0.019-0.008 0.009-0.007 0.018-0.014 0.027-0.021 0.011-0.009 0.020-0.017 0.027-0.024s0.012-0.011 0.013-0.011c0.013-0.005 0.022-0.008 0.029-0.008 0.009-0.002 0.016-0.003 0.021-0.003 0.005-0.002 0.011-0.004 0.016-0.008 0.005-0.005 0.011-0.013 0.016-0.024 0.020-0.029 0.034-0.058 0.043-0.088s0.021-0.061 0.035-0.091c0.007-0.005 0.016-0.016 0.027-0.032 0.011-0.018 0.017-0.029 0.019-0.035 0.002 0 0.007-0.003 0.016-0.008 0.009-0.007 0.018-0.014 0.027-0.021 0.009-0.009 0.017-0.017 0.024-0.024 0.007-0.009 0.012-0.015 0.013-0.019 0.002-0.005 0.005-0.012 0.011-0.021 0.007-0.011 0.014-0.021 0.021-0.032 0.007-0.012 0.013-0.023 0.019-0.032 0.007-0.011 0.012-0.018 0.013-0.021 0-0.002 0.003-0.005 0.008-0.011 0.004-0.002 0.007-0.004 0.011-0.008 0-0.004 0.001-0.005 0.003-0.005h0.005c0.027 0 0.043 0.011 0.048 0.032 0.005 0.020 0.008 0.040 0.008 0.062v0.056c0 0.009 0.001 0.030 0.003 0.064s0.003 0.071 0.003 0.11c0.002 0.038 0.004 0.073 0.005 0.107s0.003 0.055 0.003 0.062v0.008c0 0.023-0.004 0.050-0.013 0.080-0.009 0.029-0.021 0.056-0.037 0.083s-0.036 0.049-0.059 0.067c-0.021 0.018-0.045 0.028-0.070 0.029-0.013-0.002-0.036-0.003-0.070-0.005-0.032-0.002-0.067-0.004-0.104-0.006s-0.073-0.003-0.107-0.005c-0.034-0.002-0.058-0.005-0.072-0.008h-0.096c-0.009 0.004-0.029 0.007-0.062 0.011-0.032 0.002-0.067 0.004-0.104 0.006-0.036 0.002-0.071 0.004-0.104 0.006-0.032 0.002-0.052 0.002-0.059 0.002h-1.015c-0.005 0.002-0.014 0.004-0.027 0.006-0.011 0.002-0.023 0.003-0.037 0.003-0.011 0.002-0.024 0.003-0.037 0.003v0c-0.013 0.002-0.021 0.002-0.027 0.002 0 0.004-0.006 0.006-0.019 0.006s-0.024-0.001-0.035-0.003c-0.011-0.002-0.018-0.003-0.021-0.003-0.007 0.006-0.021 0.012-0.043 0.019s-0.037 0.011-0.046 0.011-0.024-0.002-0.046-0.006c-0.020-0.003-0.041-0.008-0.064-0.013-0.023-0.003-0.046-0.008-0.067-0.013-0.021-0.004-0.038-0.007-0.048-0.011zM7.404 29.585c0 0.025 0.012 0.043 0.035 0.054s0.045 0.016 0.064 0.016h0.142c0.020 0 0.039 0.001 0.059 0.003s0.039 0.003 0.059 0.003c0.046 0 0.087-0.007 0.121-0.021 0.034-0.016 0.051-0.051 0.051-0.104v-0.046c-0.016-0.082-0.040-0.163-0.072-0.244 0.004 0.023-0.026-0.056-0.057-0.135l-0.034-0.103c-0.004-0.012-0.009-0.026-0.016-0.040-0.005-0.016-0.013-0.030-0.021-0.043-0.009-0.014-0.019-0.026-0.029-0.035s-0.022-0.013-0.035-0.013c-0.023 0-0.042 0.010-0.056 0.029-0.013 0.020-0.023 0.043-0.032 0.070-0.006 0.020-0.012 0.048-0.018 0.076l-0.001 0.007c-0.005 0.027-0.012 0.048-0.019 0.064-0.005 0.016-0.015 0.045-0.029 0.086-0.013 0.041-0.026 0.085-0.040 0.131-0.014 0.045-0.029 0.087-0.043 0.129-0.013 0.041-0.021 0.070-0.027 0.086v0.032zM6.779 30.632h-0.013c-0.004 0-0.013 0.002-0.027 0.006-0.014 0.002-0.030 0.005-0.048 0.008-0.018 0.002-0.035 0.004-0.051 0.006-0.014 0.002-0.023 0.003-0.027 0.003h-0.016c-0.011 0-0.020-0.005-0.027-0.013s-0.013-0.019-0.016-0.030c-0.004-0.012-0.005-0.024-0.005-0.035-0.002-0.012-0.003-0.021-0.003-0.024v-0.008c0-0.032 0.011-0.053 0.032-0.064 0.023-0.011 0.046-0.020 0.067-0.029 0.004 0 0.013-0.003 0.027-0.008 0.008-0.005 0.023-0.012 0.038-0.019l0.007-0.003c0.018-0.007 0.034-0.013 0.048-0.019 0.014-0.007 0.023-0.012 0.027-0.016 0.002-0.002 0.007-0.006 0.016-0.013l0.029-0.029c0.011-0.011 0.021-0.021 0.029-0.032 0.011-0.011 0.020-0.020 0.027-0.027 0.002-0.004 0.004-0.008 0.008-0.013 0.007-0.011 0.011-0.019 0.011-0.024 0-0.004 0.002-0.014 0.005-0.032 0.005-0.018 0.010-0.029 0.013-0.032 0.048-0.096 0.096-0.194 0.145-0.292 0.048-0.1 0.094-0.2 0.137-0.3 0.005-0.005 0.013-0.021 0.021-0.046 0.011-0.027 0.018-0.046 0.021-0.056 0.002-0.004 0.006-0.014 0.013-0.032 0.007-0.020 0.014-0.039 0.021-0.059 0.007-0.021 0.013-0.041 0.019-0.059 0.007-0.018 0.011-0.029 0.011-0.032 0.002-0.005 0.007-0.018 0.016-0.038 0.011-0.020 0.021-0.041 0.032-0.064 0.013-0.023 0.023-0.046 0.032-0.067 0.011-0.021 0.018-0.035 0.021-0.040 0.014-0.032 0.028-0.061 0.040-0.086 0.014-0.027 0.028-0.058 0.040-0.094 0.007-0.014 0.016-0.030 0.027-0.048 0.013-0.018 0.024-0.037 0.035-0.056 0.011-0.021 0.020-0.042 0.027-0.062 0.009-0.020 0.013-0.038 0.013-0.056v-0.038c0-0.007-0.003-0.019-0.008-0.035-0.004-0.018-0.005-0.028-0.005-0.029 0-0.012 0.007-0.029 0.021-0.048s0.025-0.032 0.032-0.038c0.004-0.002 0.012-0.005 0.024-0.011 0.014-0.005 0.029-0.012 0.043-0.019s0.027-0.013 0.038-0.019c0.013-0.005 0.020-0.009 0.021-0.011 0.004-0.004 0.011-0.011 0.021-0.021s0.022-0.022 0.035-0.035c0.014-0.014 0.027-0.028 0.038-0.040 0.013-0.014 0.021-0.024 0.027-0.029 0.002-0.002 0.005-0.007 0.011-0.016 0.005-0.011 0.012-0.020 0.019-0.029 0.007-0.011 0.015-0.020 0.024-0.027 0.009-0.009 0.019-0.012 0.029-0.011 0.018 0.005 0.033 0.021 0.046 0.048 0.014 0.027 0.026 0.056 0.035 0.088 0.011 0.030 0.020 0.061 0.027 0.091 0.007 0.029 0.013 0.048 0.019 0.059 0.002 0.009 0.004 0.021 0.008 0.038 0.005 0.016 0.010 0.032 0.013 0.048 0.005 0.016 0.010 0.030 0.013 0.043s0.005 0.020 0.005 0.021c0.002 0.005 0.004 0.018 0.008 0.038s0.007 0.041 0.011 0.064c0.005 0.023 0.010 0.045 0.013 0.064 0.004 0.018 0.005 0.029 0.005 0.032 0.002 0.005 0.006 0.022 0.013 0.051 0.009 0.029 0.019 0.062 0.029 0.099s0.021 0.075 0.032 0.113c0.011 0.036 0.020 0.064 0.027 0.086 0.014 0.048 0.032 0.096 0.054 0.145 0.021 0.046 0.037 0.094 0.048 0.142 0.009 0.041 0.014 0.074 0.016 0.099 0.004 0.023 0.012 0.052 0.027 0.086 0.002 0.004 0.005 0.012 0.011 0.024 0.007 0.011 0.014 0.023 0.021 0.038 0.007 0.012 0.013 0.025 0.019 0.038s0.009 0.021 0.011 0.027c0 0.004 0.001 0.010 0.003 0.019s0.004 0.020 0.005 0.032c0.003 0.009 0.006 0.020 0.008 0.031l0 0.001c0.002 0.009 0.004 0.015 0.005 0.019 0 0.002 0.002 0.008 0.005 0.019 0.004 0.009 0.008 0.020 0.013 0.032 0.005 0.009 0.009 0.019 0.013 0.030l0.001 0.002c0.005 0.009 0.009 0.013 0.011 0.013 0.009 0.046 0.021 0.096 0.035 0.15s0.037 0.101 0.067 0.142c0.014 0.021 0.040 0.039 0.078 0.054l0.118 0.043c0.041 0.014 0.077 0.030 0.107 0.048s0.046 0.041 0.046 0.070c0 0.030-0.008 0.055-0.024 0.072-0.014 0.016-0.033 0.029-0.056 0.038s-0.049 0.014-0.078 0.016-0.055 0.003-0.080 0.003h-0.11c-0.029 0-0.079-0.001-0.15-0.003s-0.148-0.004-0.23-0.006c-0.080-0.003-0.157-0.006-0.23-0.008-0.071-0.004-0.121-0.006-0.15-0.006-0.020-0.007-0.031-0.015-0.035-0.024-0.004-0.011-0.005-0.026-0.005-0.045v-0.019c0-0.003 0.001-0.007 0.003-0.011 0.016-0.034 0.038-0.056 0.067-0.067 0.025-0.011 0.054-0.021 0.085-0.029l0.004-0.001c0.032-0.007 0.063-0.015 0.094-0.024 0.030-0.011 0.055-0.032 0.075-0.064l0.005-0.019-0.005-0.019c-0.002-0.016-0.006-0.038-0.013-0.067-0.007-0.038-0.014-0.067-0.021-0.096l0.002 0.010c-0.005-0.029-0.011-0.054-0.016-0.075-0.005-0.023-0.009-0.037-0.011-0.040-0.004-0.004-0.009-0.013-0.016-0.027s-0.015-0.030-0.024-0.048c-0.008-0.020-0.016-0.037-0.025-0.053l0.001 0.002c-0.007-0.018-0.013-0.031-0.019-0.040-0.020-0.030-0.047-0.048-0.083-0.054-0.034-0.007-0.068-0.011-0.102-0.011h-0.054c-0.064 0-0.125 0.004-0.182 0.013-0.055 0.009-0.114 0.013-0.177 0.013-0.013 0-0.025-0.001-0.037-0.003-0.011-0.002-0.024-0.003-0.037-0.003 0 0-0 0-0 0v0c-0.013 0.012-0.019 0.022-0.019 0.029-0.004 0.002-0.008 0.009-0.013 0.021-0.007 0.020-0.011 0.033-0.016 0.045l0.003-0.008c-0.004 0.015-0.009 0.027-0.014 0.040l0.001-0.002c-0.004 0.011-0.005 0.017-0.005 0.019 0 0.004-0.006 0.014-0.019 0.032-0.011 0.018-0.019 0.029-0.024 0.032-0.021 0.045-0.034 0.091-0.038 0.139-0.004 0.046-0.005 0.095-0.005 0.145 0 0.029 0.009 0.050 0.027 0.064 0.018 0.013 0.040 0.022 0.067 0.029s0.055 0.013 0.086 0.019c0.030 0.004 0.059 0.010 0.086 0.019 0.027 0.007 0.049 0.019 0.067 0.035s0.027 0.039 0.027 0.070c0 0.059-0.028 0.095-0.083 0.11-0.007 0-0.021-0.001-0.040-0.003-0.018-0.002-0.037-0.003-0.056-0.005s-0.038-0.004-0.056-0.006c-0.018-0.002-0.030-0.003-0.037-0.005h-0.265c-0.005 0-0.020-0.001-0.043-0.003s-0.049-0.004-0.078-0.006c-0.029-0.003-0.054-0.006-0.078-0.008-0.023-0.004-0.038-0.006-0.043-0.006h-0.013zM9.506 30.646c-0.004 0-0.014 0.002-0.032 0.006-0.016 0.006-0.025 0.008-0.027 0.008h-0.011c-0.023 0-0.046-0.001-0.070-0.002-0.021-0.002-0.041-0.006-0.059-0.013-0.016-0.007-0.029-0.018-0.040-0.032s-0.016-0.034-0.016-0.059v-0.040c0.002-0.018 0.023-0.030 0.064-0.038 0.043-0.009 0.090-0.014 0.142-0.016 0.052-0.004 0.101-0.006 0.147-0.008 0.046-0.004 0.074-0.011 0.083-0.021 0.002-0.009 0.004-0.017 0.005-0.024s0.004-0.013 0.005-0.019c0.002-0.005 0.003-0.010 0.003-0.013 0-0.007 0.001-0.018 0.003-0.032 0.004-0.016 0.006-0.032 0.008-0.048 0.004-0.018 0.006-0.034 0.008-0.048s0.003-0.024 0.003-0.029 0.001-0.044 0.003-0.088c0.002-0.046 0.004-0.096 0.005-0.15s0.004-0.105 0.005-0.155c0.002-0.050 0.003-0.086 0.003-0.107v-0.048c0.002-0.025 0.003-0.052 0.003-0.080s-0.001-0.054-0.003-0.078v-0.054l0.013-0.035c0-0.002 0.001-0.020 0.003-0.054 0.002-0.036 0.004-0.078 0.005-0.126 0.004-0.048 0.006-0.097 0.008-0.147 0.004-0.050 0.005-0.091 0.005-0.123v-0.372c0-0.007-0.002-0.018-0.005-0.032-0.011-0.105-0.013-0.12-0.015-0.135l0.010 0.092c-0.002-0.016-0.004-0.029-0.008-0.040-0.002-0.012-0.003-0.020-0.003-0.024-0.009-0.027-0.027-0.046-0.054-0.056-0.025-0.013-0.055-0.021-0.091-0.027-0.034-0.005-0.071-0.008-0.11-0.008-0.037-0.002-0.072-0.005-0.104-0.011s-0.059-0.014-0.080-0.027c-0.020-0.014-0.029-0.036-0.029-0.064 0-0.016 0.005-0.030 0.016-0.043 0.011-0.014 0.023-0.027 0.037-0.037l0-0c0.014-0.011 0.029-0.019 0.046-0.024 0.018-0.007 0.033-0.011 0.046-0.011 0.025 0 0.055 0.004 0.091 0.011s0.063 0.009 0.083 0.005c0.005 0 0.016-0.001 0.032-0.003s0.033-0.004 0.051-0.005c0.020-0.002 0.038-0.004 0.054-0.005 0.018-0.002 0.029-0.003 0.035-0.003 0.009 0 0.029 0.001 0.062 0.003s0.066 0.004 0.102 0.005c0.038 0.002 0.072 0.004 0.104 0.008 0.032 0.002 0.053 0.004 0.062 0.005h0.056c0.004-0.002 0.012-0.004 0.024-0.005 0.010-0.003 0.023-0.006 0.036-0.008l0.002-0c0.014-0.002 0.027-0.004 0.037-0.005 0.012-0.002 0.020-0.003 0.021-0.003h0.134c0.002 0 0.008-0.001 0.019-0.003s0.021-0.004 0.032-0.005c0.012-0.002 0.023-0.004 0.032-0.005 0.011-0.002 0.017-0.003 0.019-0.003h0.019c0.004-0.002 0.007-0.003 0.011-0.003 0.021 0 0.043 0.001 0.064 0.003s0.041 0.006 0.059 0.013c0.018 0.005 0.032 0.015 0.043 0.029 0.012 0.014 0.019 0.034 0.019 0.059 0 0.005-0.002 0.013-0.005 0.024-0.004 0.009-0.005 0.015-0.005 0.019-0.014 0.009-0.037 0.022-0.067 0.040-0.030 0.016-0.055 0.026-0.075 0.029-0.007 0-0.023 0.002-0.048 0.005-0.023 0.002-0.048 0.004-0.075 0.008-0.027 0.002-0.052 0.004-0.075 0.008-0.023 0.002-0.037 0.003-0.043 0.003-0.014 0.002-0.027 0.008-0.038 0.019-0.009 0.009-0.015 0.021-0.019 0.035-0.016 0.080-0.027 0.16-0.032 0.238-0.004 0.079-0.005 0.159-0.005 0.241v0.343c0 0.002-0.002 0.012-0.005 0.032-0.002 0.018-0.004 0.038-0.008 0.062-0.002 0.021-0.004 0.042-0.008 0.062-0.002 0.020-0.003 0.032-0.003 0.038v0.563c0 0.005-0.001 0.017-0.003 0.035 0-0.008-0.002 0.012-0.003 0.031l-0.002 0.025c-0.002 0.020-0.004 0.038-0.005 0.054s-0.003 0.026-0.003 0.029v0.038c0 0.004 0.003 0.013 0.008 0.029 0.005 0.014 0.008 0.023 0.008 0.027s-0.003 0.010-0.008 0.019c-0.005 0.007-0.008 0.013-0.008 0.019-0.002 0.005-0.003 0.011-0.003 0.016-0.002 0.004-0.003 0.008-0.003 0.013v0.011c0 0.034 0.010 0.066 0.029 0.096 0.021 0.029 0.048 0.043 0.080 0.043h0.016c0.052-0.009 0.105-0.017 0.161-0.024 0.057-0.009 0.112-0.013 0.163-0.013h0.453c0.007 0 0.019-0.001 0.035-0.003 0.018-0.002 0.035-0.004 0.051-0.005s0.030-0.004 0.043-0.005c0.012-0.004 0.020-0.006 0.021-0.008 0.004-0.002 0.011-0.007 0.021-0.016l0.035-0.035c0.014-0.014 0.027-0.028 0.038-0.040 0.012-0.013 0.021-0.022 0.027-0.029 0-0.002 0.002-0.006 0.005-0.013 0.004-0.009 0.007-0.017 0.011-0.024 0.004-0.009 0.007-0.017 0.011-0.024s0.006-0.012 0.008-0.013c0-0.002 0.003-0.004 0.008-0.008 0.007-0.005 0.014-0.011 0.021-0.016 0.005-0.004 0.011-0.008 0.017-0.012l0.002-0.001c0.007-0.004 0.012-0.005 0.013-0.005l0.013-0.013c0.004-0.002 0.011-0.012 0.021-0.029 0.011-0.020 0.016-0.031 0.016-0.035 0.007-0.007 0.016-0.018 0.027-0.032 0.012-0.016 0.025-0.032 0.037-0.048 0.014-0.018 0.027-0.034 0.038-0.048 0.011-0.016 0.019-0.027 0.024-0.032 0.007-0.009 0.012-0.014 0.013-0.016 0.004-0.002 0.012-0.003 0.027-0.003 0.029 0 0.051 0.012 0.067 0.035 0.016 0.021 0.028 0.047 0.035 0.078s0.011 0.062 0.011 0.094c0.002 0.030 0.003 0.055 0.003 0.075v0.070c0 0.012-0.001 0.023-0.003 0.032v0.013c0 0.004-0.003 0.013-0.008 0.029-0.005 0.014-0.008 0.023-0.008 0.027-0.004 0.041-0.005 0.077-0.005 0.107 0 0.029-0.004 0.054-0.013 0.075-0.007 0.021-0.021 0.039-0.043 0.053-0.020 0.014-0.053 0.027-0.099 0.038-0.016 0.002-0.046 0.003-0.088 0.003-0.043 0.002-0.089 0.003-0.139 0.003h-0.501c-0.046 0-0.088-0.001-0.123-0.003-0.036 0-0.054-0.001-0.056-0.003-0.009 0-0.027-0.001-0.054-0.002-0.025 0-0.054-0.001-0.086-0.003-0.030 0-0.061-0.001-0.091-0.003-0.029-0.002-0.051-0.004-0.067-0.006-0.002 0-0.007-0.001-0.016-0.002-0.004-0.001-0.014-0.003-0.024-0.005l-0.005-0.001c-0.015-0.003-0.025-0.004-0.035-0.007l0.006 0.001c-0.009-0.002-0.014-0.003-0.016-0.005h-0.043c-0.009 0.002-0.027 0.004-0.054 0.005s-0.055 0.004-0.086 0.006-0.060 0.004-0.088 0.006c-0.027 0.002-0.044 0.002-0.051 0.002h-0.179c-0.004 0-0.016 0.002-0.038 0.006-0.020 0.006-0.030 0.008-0.032 0.008-0.012 0.007-0.028 0.011-0.046 0.011-0.016 0.002-0.029 0.003-0.038 0.003-0.005 0-0.016-0.002-0.032-0.005-0.016-0.002-0.034-0.005-0.054-0.008-0.018-0.003-0.035-0.007-0.051-0.011-0.016-0.002-0.025-0.003-0.027-0.003zM12.34 28.524c-0.005-0.034-0.012-0.061-0.021-0.080-0.009-0.021-0.021-0.038-0.035-0.051-0.014-0.014-0.032-0.027-0.054-0.038s-0.048-0.024-0.080-0.040c-0.018-0.008-0.039-0.015-0.060-0.019l-0.001-0c-0.020-0.005-0.032-0.010-0.037-0.013-0.011-0.012-0.019-0.029-0.024-0.051-0.005-0.023-0.008-0.040-0.008-0.051v-0.021c0.002-0.012 0.006-0.021 0.013-0.027 0.004-0.002 0.013-0.004 0.029-0.008s0.029-0.007 0.038-0.011c0.018-0.002 0.037-0.004 0.059-0.005 0.023-0.002 0.045-0.003 0.064-0.003 0.030 0 0.062 0.003 0.094 0.008 0.032 0.004 0.074 0.010 0.126 0.019h0.198c0.030 0 0.060-0.001 0.088-0.003s0.057-0.004 0.086-0.005c0.029-0.002 0.060-0.005 0.094-0.011 0.005 0 0.016-0.003 0.032-0.008s0.026-0.008 0.029-0.008h0.019c0.041 0 0.079 0.007 0.113 0.021 0.036 0.014 0.054 0.044 0.054 0.088 0 0.030-0.011 0.054-0.032 0.070s-0.047 0.030-0.078 0.043c-0.029 0.012-0.058 0.025-0.088 0.038-0.029 0.011-0.051 0.026-0.067 0.046-0.018 0.020-0.032 0.044-0.043 0.072-0.011 0.027-0.020 0.056-0.027 0.088-0.005 0.026-0.009 0.057-0.011 0.089l-0 0.002c-0.002 0.030-0.003 0.057-0.003 0.080 0 0.029 0.004 0.052 0.011 0.070 0.009 0.018 0.013 0.039 0.013 0.064 0 0.005-0.001 0.013-0.003 0.024 0 0.009-0.003 0.015-0.008 0.019 0 0.004-0.001 0.013-0.003 0.029-0.001 0.007-0.003 0.025-0.005 0.044l-0.001 0.010c0 0.018-0.001 0.035-0.003 0.051s-0.003 0.027-0.003 0.032v0.236c0 0.009-0.004 0.024-0.011 0.046-0.005 0.021-0.009 0.036-0.011 0.043v0.056c0 0.004 0.001 0.013 0.003 0.027 0.004 0.014 0.006 0.029 0.008 0.046 0.004 0.016 0.006 0.031 0.008 0.046s0.003 0.023 0.003 0.027c0.002 0.009 0.003 0.025 0.003 0.048 0.002 0.021 0.004 0.045 0.005 0.070 0.002 0.023 0.003 0.046 0.003 0.067 0.002 0.021 0.003 0.037 0.003 0.046 0.002 0.014 0.005 0.033 0.011 0.056 0.005 0.021 0.011 0.044 0.016 0.067 0.007 0.023 0.014 0.046 0.021 0.067s0.014 0.038 0.021 0.051c0.007 0.018 0.020 0.040 0.037 0.067 0.020 0.027 0.041 0.054 0.064 0.080 0.023 0.025 0.046 0.047 0.070 0.067 0.025 0.020 0.048 0.032 0.070 0.038 0.004 0 0.012 0.004 0.024 0.011 0.012 0.005 0.023 0.008 0.032 0.008 0.012 0 0.019 0.001 0.019 0.003 0.020 0.002 0.037 0.006 0.054 0.013 0.016 0.005 0.031 0.012 0.046 0.019 0.014 0.005 0.029 0.011 0.046 0.016s0.034 0.008 0.054 0.008h0.037c0.002-0.002 0.008-0.005 0.019-0.011s0.021-0.011 0.032-0.016c0.012-0.005 0.023-0.010 0.032-0.013 0.011-0.004 0.017-0.005 0.019-0.005h0.043c0.002-0.001 0.021-0.007 0.040-0.012l0.016-0.004c0.014-0.004 0.029-0.006 0.046-0.008 0.016-0.004 0.029-0.006 0.038-0.008 0.048-0.016 0.091-0.046 0.129-0.088 0.039-0.045 0.071-0.085 0.094-0.121 0.002-0.004 0.004-0.012 0.008-0.024 0.005-0.012 0.010-0.025 0.013-0.038 0.005-0.014 0.010-0.028 0.013-0.040s0.005-0.021 0.005-0.024c0.021-0.055 0.037-0.113 0.048-0.174s0.018-0.122 0.021-0.185c0.004-0.064 0.006-0.128 0.008-0.19s0.005-0.123 0.011-0.182c0-0.002 0.001-0.007 0.003-0.016s0.003-0.021 0.003-0.032c0 0 0-0 0-0v0c0.002-0.012 0.004-0.023 0.005-0.032 0.002-0.011 0.003-0.018 0.003-0.021v-0.233c-0.002-0.014-0.004-0.040-0.008-0.078s-0.008-0.078-0.013-0.121c-0.006-0.083-0.010-0.124-0.014-0.166l0.004 0.045c-0.002-0.039-0.003-0.067-0.003-0.083-0.004-0.009-0.011-0.026-0.021-0.051-0.011-0.027-0.020-0.044-0.027-0.051-0.002-0.010-0.005-0.019-0.008-0.028l0 0.001c-0.004-0.011-0.007-0.016-0.011-0.016-0.012-0.012-0.024-0.019-0.035-0.019-0.009 0-0.017 0.001-0.024 0.003-0.005 0.002-0.012 0.003-0.019 0.003-0.009 0-0.017-0.002-0.024-0.005-0.045-0.009-0.086-0.020-0.123-0.032-0.036-0.013-0.069-0.038-0.099-0.078-0.004-0.009-0.006-0.015-0.008-0.019v-0.024c0-0.004 0.001-0.007 0.003-0.011 0.002-0.005 0.004-0.010 0.005-0.013 0.029-0.036 0.063-0.057 0.104-0.064 0.041-0.009 0.084-0.013 0.129-0.013 0.032 0 0.064 0.002 0.096 0.005 0.032 0.002 0.063 0.003 0.094 0.003 0.014 0 0.035-0.003 0.062-0.008 0.029-0.005 0.053-0.008 0.072-0.008h0.166c0.016 0 0.035-0.001 0.056-0.003 0.023-0.002 0.046-0.003 0.070-0.003 0.036 0 0.071 0.003 0.104 0.008s0.063 0.016 0.086 0.032c0.004 0.005 0.005 0.015 0.005 0.029 0.002 0.014 0.003 0.023 0.003 0.027 0 0.036-0.009 0.063-0.027 0.083-0.016 0.018-0.037 0.032-0.064 0.043-0.025 0.009-0.053 0.016-0.083 0.021-0.029 0.005-0.055 0.013-0.080 0.024-0.029 0.012-0.052 0.032-0.070 0.059s-0.027 0.056-0.027 0.088c0 0.029 0.003 0.054 0.008 0.075 0.007 0.021 0.011 0.046 0.011 0.075v0.046c0 0.005-0.004 0.017-0.011 0.035-0.005 0.018-0.008 0.028-0.008 0.029v0.222c-0.002 0.020-0.004 0.054-0.005 0.102s-0.004 0.1-0.008 0.155c-0.002 0.054-0.004 0.104-0.005 0.153s-0.004 0.082-0.005 0.102c-0.009 0.018-0.015 0.036-0.019 0.054-0.004 0.016-0.006 0.033-0.008 0.051-0.002 0.016-0.004 0.032-0.005 0.048 0 0.016-0.003 0.033-0.008 0.051-0.002 0.005-0.004 0.015-0.008 0.029-0.004 0.012-0.008 0.027-0.013 0.043-0.006 0.027-0.009 0.043-0.013 0.058l0.003-0.012c-0.004 0.012-0.005 0.020-0.005 0.024-0.004 0.004-0.006 0.012-0.008 0.027-0.002 0.013-0.004 0.026-0.005 0.040 0 0.012-0.002 0.025-0.005 0.038-0.002 0.011-0.004 0.016-0.005 0.016 0 0.005-0.006 0.018-0.019 0.038-0.013 0.018-0.020 0.029-0.021 0.032-0.004 0.004-0.010 0.015-0.019 0.035s-0.020 0.041-0.032 0.064c-0.011 0.023-0.021 0.045-0.032 0.064s-0.018 0.032-0.021 0.038c-0.032 0.061-0.074 0.115-0.126 0.163-0.050 0.048-0.104 0.097-0.161 0.147-0.007 0.006-0.018 0.013-0.032 0.024-0.014 0.009-0.029 0.019-0.046 0.030-0.014 0.011-0.028 0.020-0.040 0.029-0.012 0.007-0.020 0.012-0.021 0.013h-0.078c-0.034 0.004-0.064 0.007-0.091 0.011-0.025 0.005-0.050 0.010-0.075 0.013-0.025 0.006-0.051 0.010-0.078 0.013s-0.057 0.006-0.091 0.006h-0.161c-0.020-0.009-0.040-0.015-0.062-0.019s-0.043-0.007-0.064-0.011c-0.020-0.002-0.039-0.005-0.059-0.011-0.020-0.004-0.038-0.011-0.056-0.021-0.005-0.002-0.017-0.008-0.035-0.019-0.018-0.012-0.038-0.027-0.062-0.043-0.017-0.013-0.038-0.028-0.059-0.043l-0.005-0.003c-0.021-0.016-0.038-0.029-0.048-0.040l-0.019-0.013c-0.014-0.023-0.029-0.043-0.046-0.059-0.016-0.018-0.032-0.035-0.048-0.051v0c-0.016-0.016-0.032-0.033-0.047-0.050l-0.001-0.001c-0.014-0.020-0.027-0.042-0.037-0.067-0.038-0.086-0.064-0.178-0.080-0.276-0.014-0.1-0.021-0.198-0.021-0.295-0.002-0.021-0.004-0.051-0.005-0.088v-0.962c0.002-0.041 0.004-0.072 0.005-0.094zM16.497 28.514c0.014-0.007 0.024-0.020 0.029-0.038s0.008-0.036 0.008-0.054c0-0.038-0.014-0.063-0.043-0.078-0.027-0.016-0.057-0.028-0.091-0.035-0.052-0.014-0.082-0.023-0.112-0.033l0.021 0.006c-0.027-0.011-0.040-0.029-0.040-0.056 0-0.009 0.004-0.016 0.011-0.021 0.007-0.007 0.016-0.013 0.027-0.016 0.009-0.005 0.019-0.009 0.030-0.013l0.002-0c0.012-0.004 0.023-0.007 0.032-0.011s0.023-0.007 0.043-0.011c0.021-0.004 0.034-0.005 0.038-0.005h0.471c0.032-0.014 0.063-0.022 0.094-0.024 0.030-0.004 0.061-0.005 0.091-0.005 0.023 0 0.045 0.001 0.064 0.003 0.021 0 0.039 0.003 0.054 0.008 0.016 0.005 0.029 0.015 0.038 0.029s0.013 0.035 0.013 0.062c0 0.038-0.011 0.066-0.032 0.086-0.020 0.020-0.045 0.035-0.075 0.046-0.030 0.009-0.063 0.016-0.096 0.021-0.032 0.005-0.061 0.012-0.086 0.019-0.080 0.029-0.152 0.067-0.214 0.115-0.061 0.046-0.119 0.104-0.174 0.171-0.005 0.005-0.015 0.017-0.029 0.035-0.014 0.016-0.030 0.034-0.048 0.054-0.016 0.020-0.031 0.038-0.046 0.056-0.014 0.016-0.024 0.027-0.029 0.032-0.007 0.009-0.015 0.020-0.024 0.032s-0.020 0.023-0.032 0.032l-0 0c-0.023 0.020-0.046 0.045-0.067 0.075s-0.039 0.060-0.054 0.088c-0.007 0.012-0.013 0.024-0.019 0.035-0.004 0.011-0.005 0.025-0.005 0.043 0 0.038 0.010 0.077 0.029 0.118s0.038 0.079 0.056 0.115c0.007 0.011 0.016 0.027 0.027 0.048 0.011 0.020 0.021 0.039 0.032 0.059s0.020 0.038 0.027 0.054c0.009 0.016 0.014 0.026 0.016 0.029s0.008 0.014 0.019 0.032c0.012 0.016 0.026 0.035 0.040 0.056 0.014 0.020 0.027 0.038 0.038 0.056 0.012 0.018 0.021 0.029 0.024 0.035l0.064 0.121c0.021 0.050 0.044 0.1 0.067 0.15 0.023 0.048 0.048 0.096 0.075 0.142 0.027 0.045 0.057 0.087 0.091 0.129s0.073 0.080 0.118 0.118c0.016 0.012 0.037 0.023 0.062 0.032 0.025 0.007 0.049 0.015 0.072 0.024 0.025 0.009 0.046 0.022 0.062 0.038 0.018 0.014 0.027 0.036 0.027 0.064 0 0.036-0.012 0.058-0.035 0.067-0.021 0.011-0.046 0.016-0.075 0.016-0.016 0-0.033-0.001-0.051-0.003-0.016-0.002-0.030-0.003-0.043-0.003-0.007 0.004-0.025 0.006-0.054 0.008-0.029 0.003-0.060 0.007-0.094 0.011-0.032 0.004-0.062 0.006-0.091 0.008s-0.046 0.003-0.054 0.003h-0.013c-0.002 0-0.008-0.001-0.019-0.003s-0.022-0.004-0.035-0.008c-0.008-0.003-0.019-0.006-0.031-0.010l-0.004-0.001c-0.011-0.002-0.017-0.005-0.019-0.008-0.009 0-0.028-0.001-0.056-0.002-0.027-0.002-0.056-0.004-0.088-0.006-0.030 0-0.059-0.001-0.086-0.003s-0.044-0.003-0.051-0.003c-0.007 0-0.022-0.002-0.046-0.005-0.021-0.006-0.036-0.010-0.043-0.013v-0.019c0-0.028 0.006-0.048 0.019-0.059 0.014-0.011 0.029-0.020 0.043-0.027 0.016-0.009 0.030-0.020 0.043-0.032 0.014-0.012 0.021-0.035 0.021-0.067 0-0.018-0.005-0.046-0.016-0.086s-0.026-0.082-0.046-0.129c-0.018-0.048-0.038-0.097-0.062-0.147-0.021-0.050-0.045-0.096-0.070-0.137-0.023-0.041-0.046-0.075-0.067-0.102s-0.040-0.040-0.056-0.040c-0.030 0-0.055 0.009-0.075 0.027-0.020 0.016-0.037 0.037-0.051 0.062-0.014 0.023-0.027 0.048-0.037 0.075s-0.021 0.050-0.032 0.070c-0.005 0.009-0.019 0.030-0.040 0.064-0.021 0.032-0.046 0.068-0.072 0.107-0.025 0.039-0.049 0.076-0.072 0.11-0.021 0.034-0.035 0.054-0.040 0.062-0.004 0.002-0.008 0.008-0.013 0.019-0.004 0.009-0.007 0.015-0.011 0.019v0.019c0 0.025 0.011 0.043 0.032 0.054s0.046 0.021 0.075 0.029c0.029 0.007 0.057 0.017 0.086 0.030 0.030 0.011 0.054 0.028 0.070 0.053 0 0.023-0.006 0.039-0.019 0.048-0.011 0.007-0.024 0.012-0.040 0.016h-0.75c-0.014 0-0.023-0.005-0.027-0.016-0.002-0.012-0.003-0.022-0.003-0.027v-0.022c0.021-0.025 0.046-0.045 0.072-0.062 0.029-0.016 0.057-0.030 0.086-0.043 0.030-0.013 0.061-0.024 0.091-0.035 0.030-0.012 0.059-0.028 0.086-0.046 0.007-0.007 0.021-0.021 0.043-0.040 0.021-0.021 0.044-0.044 0.067-0.067 0.025-0.023 0.048-0.046 0.070-0.067 0.023-0.021 0.039-0.037 0.048-0.046 0.046-0.054 0.086-0.109 0.118-0.166 0.034-0.059 0.067-0.119 0.099-0.179 0.004-0.005 0.012-0.013 0.024-0.024 0.012-0.012 0.020-0.021 0.021-0.024 0.005-0.007 0.012-0.017 0.021-0.029 0.011-0.014 0.020-0.028 0.027-0.040 0.009-0.012 0.016-0.023 0.021-0.032 0.007-0.011 0.011-0.017 0.011-0.019v-0.013c0.002-0.011 0.003-0.022 0.003-0.035 0.002-0.012 0.003-0.024 0.003-0.035 0.002-0.012 0.003-0.021 0.003-0.027s-0.001-0.013-0.003-0.024c0-0.011-0.001-0.022-0.003-0.035 0-0.012-0.001-0.024-0.003-0.035v-0.024c-0.050-0.030-0.088-0.065-0.113-0.104-0.025-0.041-0.048-0.087-0.070-0.139-0.002-0.005-0.007-0.015-0.016-0.029l-0.027-0.043c-0.009-0.016-0.018-0.030-0.027-0.043-0.007-0.014-0.012-0.022-0.013-0.024-0.007-0.014-0.018-0.037-0.032-0.067-0.012-0.030-0.023-0.052-0.032-0.064-0.004-0.002-0.007-0.007-0.011-0.016 0.024 0.082 0.020 0.072 0.017 0.061l-0.028-0.093c-0.004-0.011-0.007-0.021-0.011-0.032-0.002-0.011-0.004-0.018-0.005-0.021l-0.005-0.005c-0.002-0.002-0.004-0.003-0.008-0.003-0.002-0.002-0.004-0.004-0.005-0.008-0.007-0.005-0.013-0.011-0.019-0.016-0.036-0.045-0.064-0.091-0.086-0.139-0.020-0.048-0.046-0.093-0.080-0.134-0.023-0.027-0.047-0.050-0.072-0.070-0.023-0.020-0.048-0.039-0.075-0.057l-0.003-0.002c-0.016-0.012-0.042-0.030-0.067-0.047l-0.010-0.007c-0.027-0.018-0.053-0.038-0.078-0.062-0.014-0.009-0.023-0.020-0.027-0.032-0.002-0.013-0.003-0.028-0.003-0.043 0-0 0-0 0-0v0c0-0.020 0.004-0.032 0.013-0.038s0.023-0.008 0.043-0.008h0.011s0.004 0.001 0.011 0.003c0.009 0.002 0.018 0.004 0.027 0.005 0.011 0.002 0.020 0.004 0.027 0.005 0.009 0.002 0.015 0.003 0.019 0.003h0.013c0.114 0 0.227-0.004 0.338-0.011 0.113-0.007 0.225-0.011 0.338-0.011 0.043 0 0.074 0.005 0.094 0.016 0.021 0.009 0.032 0.034 0.032 0.075 0 0.036-0.007 0.061-0.021 0.075-0.014 0.012-0.030 0.022-0.047 0.029l-0.001 0c-0.018 0.007-0.034 0.016-0.048 0.027s-0.021 0.032-0.021 0.064c0 0.014 0.005 0.033 0.016 0.056 0.011 0.021 0.020 0.037 0.027 0.046 0.005 0.009 0.017 0.031 0.035 0.067 0.020 0.034 0.040 0.071 0.062 0.113 0.023 0.039 0.045 0.076 0.064 0.11s0.032 0.055 0.038 0.064c0.012 0.018 0.023 0.032 0.032 0.043 0.011 0.011 0.023 0.016 0.038 0.016 0.021 0 0.046-0.009 0.072-0.027 0.029-0.020 0.065-0.046 0.11-0.080 0.018-0.014 0.036-0.037 0.054-0.067 0.020-0.032 0.038-0.064 0.054-0.096 0.016-0.034 0.030-0.066 0.043-0.096 0.014-0.030 0.026-0.052 0.035-0.064zM19.894 30.64c-0.007 0-0.018 0.001-0.032 0.003h-0.040c-0 0-0 0-0 0-0.012 0-0.024 0.001-0.036 0.003l0.001-0h-0.016l-0.064 0.024-0.329-0.019h-0.702c-0.027-0.009-0.050-0.015-0.070-0.019-0.018-0.003-0.039-0.005-0.064-0.005-0.020 0-0.035 0.001-0.046 0.003s-0.025 0.007-0.043 0.016c-0.018 0-0.048-0.001-0.091-0.002-0.041-0.002-0.085-0.003-0.131-0.003s-0.091 0.001-0.134 0.003c-0.041 0.002-0.069 0.002-0.083 0.002-0.005 0-0.015 0.001-0.029 0.003-0.012 0.002-0.027 0.003-0.043 0.003l-0.043 0.006c-0.012 0.002-0.021 0.002-0.024 0.002-0.005 0.002-0.012 0.003-0.019 0.003-0.005 0.002-0.011 0.003-0.016 0.003h-0.011c-0.048 0-0.085-0.006-0.11-0.016-0.023-0.009-0.044-0.038-0.062-0.086-0.007 0-0.011-0.002-0.011-0.006-0.002-0.002-0.002-0.004 0-0.008 0-0.014 0.004-0.030 0.013-0.045 0.011-0.018 0.023-0.034 0.038-0.048 0.016-0.014 0.032-0.026 0.048-0.035 0.018-0.011 0.035-0.016 0.051-0.016h0.254c0.004 0 0.015-0.010 0.035-0.029 0.020-0.021 0.036-0.038 0.048-0.048 0.004-0.004 0.007-0.011 0.011-0.021 0.005-0.012 0.008-0.021 0.008-0.027 0.021-0.105 0.034-0.21 0.038-0.313s0.005-0.212 0.005-0.324v-0.059c0.002-0.032 0.003-0.070 0.003-0.113 0.002-0.043 0.004-0.087 0.005-0.134 0.002-0.048 0.003-0.094 0.003-0.137 0.002-0.043 0.003-0.079 0.003-0.11 0.002-0.032 0.003-0.054 0.003-0.064v-0.145c0-0.143-0.003-0.284-0.008-0.423-0.005-0.124-0.008-0.269-0.008-0.415v-0.019c0-0.005 0.001-0.019 0.003-0.040 0.002-0.023 0.004-0.047 0.005-0.072s0.004-0.048 0.005-0.070c0.002-0.021 0.003-0.035 0.003-0.040 0.002-0.016 0.004-0.044 0.005-0.083 0.002-0.041 0.004-0.084 0.005-0.129 0.002-0.046 0.004-0.089 0.005-0.129s0.003-0.067 0.003-0.083c-0.009-0.027-0.014-0.054-0.016-0.083-0.002-0.030-0.004-0.059-0.008-0.086-0.004-0.029-0.011-0.055-0.021-0.080s-0.028-0.046-0.051-0.064c-0.011-0.002-0.029-0.004-0.056-0.005s-0.055-0.003-0.086-0.003c-0.111-0.006-0.139-0.008-0.168-0.010l0.085 0.005c-0.027-0.002-0.045-0.004-0.054-0.005-0.029-0.004-0.060-0.008-0.094-0.013-0.034-0.007-0.065-0.017-0.094-0.029-0.029-0.014-0.053-0.033-0.072-0.056-0.018-0.023-0.027-0.054-0.027-0.091l0.011-0.005c0.004-0.002 0.006-0.004 0.008-0.005s0.004-0.003 0.008-0.003c0.043-0.025 0.081-0.041 0.115-0.048 0.034-0.009 0.078-0.013 0.131-0.013h0.013c0.005 0.005 0.011 0.010 0.016 0.013 0.011 0.007 0.018 0.011 0.021 0.011 0.089 0.007 0.179 0.012 0.268 0.016 0.089 0.002 0.179 0.003 0.271 0.003 0.075 0 0.148-0.001 0.22-0.003s0.142-0.003 0.212-0.003h0.592c0.007 0 0.019-0.001 0.035-0.003s0.033-0.003 0.051-0.003c0.020-0.002 0.038-0.004 0.056-0.005s0.031-0.003 0.040-0.003h0.035c0.005 0 0.018 0.001 0.038 0.003s0.041 0.004 0.064 0.005c0.023 0 0.045 0.001 0.064 0.003 0.021 0.002 0.035 0.003 0.040 0.003h0.319c0.014 0.002 0.035 0.004 0.062 0.005 0.029 0.002 0.056 0.004 0.083 0.005 0.029 0.002 0.054 0.004 0.075 0.008 0.021 0.002 0.033 0.004 0.035 0.005 0.002 0 0.009 0.003 0.021 0.008s0.026 0.012 0.040 0.021c0.016 0.007 0.031 0.015 0.046 0.024 0.016 0.009 0.029 0.017 0.038 0.024 0.018 0.011 0.032 0.037 0.043 0.078 0.012 0.039 0.022 0.083 0.029 0.131s0.012 0.096 0.016 0.142c0.005 0.046 0.010 0.082 0.013 0.107 0 0.009 0.001 0.025 0.003 0.048 0.004 0.021 0.006 0.045 0.008 0.070s0.004 0.049 0.005 0.072c0.002 0.023 0.003 0.039 0.003 0.048v0.147c-0.009 0.016-0.021 0.027-0.035 0.032-0.014 0.004-0.029 0.005-0.046 0.005h-0.019c-0.020-0.012-0.034-0.025-0.043-0.038s-0.016-0.025-0.021-0.038c-0.005-0.014-0.011-0.029-0.016-0.043-0.004-0.014-0.011-0.029-0.021-0.046 0-0.002-0.004-0.005-0.011-0.011-0.005-0.007-0.012-0.014-0.019-0.021s-0.014-0.013-0.021-0.019c-0.007-0.007-0.012-0.012-0.013-0.013-0.025-0.036-0.050-0.076-0.075-0.121-0.023-0.046-0.051-0.089-0.083-0.129-0.002-0.004-0.008-0.010-0.019-0.019-0.009-0.009-0.015-0.017-0.019-0.024-0.002-0.004-0.008-0.006-0.019-0.008-0.011-0.004-0.018-0.007-0.021-0.011-0.021-0.014-0.038-0.030-0.051-0.048-0.013-0.019-0.027-0.036-0.041-0.051l0 0.001c-0.012-0.018-0.027-0.035-0.043-0.051s-0.038-0.029-0.067-0.040c-0.014 0-0.042-0.001-0.083-0.003-0.039-0.004-0.081-0.006-0.126-0.008-0.045-0.004-0.087-0.006-0.129-0.008-0.039-0.004-0.067-0.006-0.083-0.008h-0.139c-0.002 0-0.010-0.001-0.024-0.003-0.013-0.004-0.027-0.006-0.043-0.008-0.016-0.004-0.031-0.006-0.046-0.008-0.014-0.004-0.023-0.005-0.027-0.005h-0.078c-0.007 0-0.023 0.002-0.048 0.005-0.023 0.002-0.049 0.004-0.078 0.008-0.027 0.002-0.053 0.004-0.078 0.008-0.023 0.002-0.038 0.003-0.043 0.003h-0.158c-0.007 0-0.015 0.003-0.024 0.008-0.009 0.004-0.013 0.007-0.013 0.011v0.332c-0.002 0.057-0.010 0.112-0.024 0.163s-0.021 0.104-0.021 0.158c0 0.080 0.004 0.162 0.011 0.244 0.009 0.080 0.013 0.163 0.013 0.246 0 0.057-0.004 0.115-0.013 0.174-0.007 0.059-0.011 0.12-0.011 0.182v0.019c0.005 0.005 0.013 0.013 0.021 0.024 0.009 0.009 0.017 0.013 0.024 0.013h0.137c0.004 0 0.012-0.001 0.024-0.003 0.012-0.004 0.026-0.006 0.040-0.008 0.014-0.004 0.027-0.006 0.038-0.008 0.012-0.004 0.020-0.005 0.021-0.005h0.238c0.012 0 0.035-0.001 0.067-0.003 0.034-0.002 0.069-0.003 0.104-0.003 0.038-0.002 0.072-0.004 0.104-0.005s0.054-0.003 0.067-0.003c0.027-0.023 0.046-0.057 0.059-0.102 0.012-0.046 0.025-0.085 0.038-0.115 0.002-0.005 0.004-0.018 0.005-0.038 0.004-0.021 0.007-0.044 0.011-0.067s0.007-0.045 0.011-0.064c0.004-0.021 0.007-0.035 0.011-0.040 0-0.002 0.002-0.006 0.005-0.013 0.005-0.009 0.011-0.017 0.016-0.024 0.005-0.009 0.010-0.017 0.013-0.024 0.005-0.007 0.009-0.012 0.011-0.013 0.007-0.023 0.012-0.048 0.013-0.075s0.006-0.051 0.013-0.072c0.007-0.023 0.019-0.042 0.035-0.056s0.042-0.021 0.078-0.021c0.039 0 0.065 0.009 0.078 0.027s0.019 0.047 0.019 0.088c0 0.014-0.001 0.025-0.003 0.032-0.002 0.005-0.005 0.018-0.011 0.038 0 0.002-0.001 0.006-0.003 0.013s-0.003 0.015-0.003 0.024c0 0.014 0.001 0.028 0.003 0.040 0.002 0.011 0.003 0.019 0.003 0.024-0.002 0.011-0.004 0.033-0.005 0.067s-0.004 0.073-0.008 0.118c-0.004 0.045-0.007 0.093-0.011 0.145-0.004 0.050-0.007 0.098-0.011 0.145-0.004 0.045-0.007 0.084-0.011 0.118-0.002 0.034-0.004 0.057-0.005 0.070 0 0.004 0.001 0.021 0.003 0.051 0.002 0.029 0.003 0.058 0.003 0.088 0 0.014-0.002 0.030-0.005 0.048-0.004 0.016-0.006 0.027-0.008 0.032 0 0-0.002 0.004-0.005 0.013-0.002 0.009-0.004 0.020-0.008 0.032-0.002 0.012-0.005 0.023-0.009 0.034l0-0.002c-0.002 0.009-0.003 0.015-0.003 0.019 0 0.005 0.001 0.018 0.003 0.038s0.004 0.041 0.005 0.064c0.004 0.021 0.006 0.042 0.008 0.062 0.002 0.018 0.003 0.029 0.003 0.035v0.032c0.002 0.012 0.003 0.026 0.003 0.040v0.038c0.002 0.012 0.003 0.022 0.003 0.029 0 0.030-0.004 0.058-0.011 0.083-0.005 0.025-0.018 0.053-0.038 0.083-0.002 0.009-0.011 0.019-0.027 0.029-0.014 0.009-0.023 0.013-0.027 0.013s-0.013-0.004-0.029-0.013c-0.016-0.011-0.027-0.020-0.032-0.029-0.030-0.025-0.052-0.060-0.064-0.104-0.011-0.045-0.018-0.093-0.021-0.145-0.004-0.054-0.005-0.108-0.005-0.163s-0.004-0.106-0.011-0.153c-0.005-0.048-0.017-0.088-0.035-0.121s-0.046-0.052-0.086-0.059c-0.014 0.004-0.037 0.005-0.067 0.005h-0.206c-0.032 0-0.054-0.002-0.064-0.005-0.009 0-0.023-0.001-0.043-0.003s-0.040-0.003-0.062-0.003c-0.020-0.002-0.039-0.004-0.059-0.005-0.018-0.002-0.030-0.003-0.038-0.003-0.002-0.005-0.009-0.012-0.021-0.019s-0.021-0.011-0.024-0.011h-0.027c-0.046 0-0.091 0.012-0.134 0.035-0.041 0.021-0.066 0.056-0.075 0.104-0.002 0.012-0.006 0.038-0.013 0.075-0.005 0.036-0.012 0.075-0.019 0.118-0.007 0.056-0.014 0.099-0.021 0.142l0.002-0.016c-0.005 0.039-0.009 0.069-0.011 0.088v0.035c0 0.014 0.001 0.038 0.003 0.070s0.004 0.067 0.005 0.104c0.002 0.036 0.004 0.071 0.005 0.104 0.004 0.032 0.005 0.054 0.005 0.067 0.009 0.014 0.014 0.025 0.016 0.032s0.003 0.015 0.003 0.024c0 0.070-0.004 0.137-0.011 0.204s-0.011 0.136-0.011 0.209v0.046c0.002 0.023 0.003 0.039 0.003 0.048 0.002 0.004 0.006 0.010 0.013 0.019 0.007 0.007 0.014 0.015 0.021 0.024 0.009 0.007 0.018 0.014 0.027 0.021s0.015 0.012 0.019 0.013c0.002 0.004 0.010 0.006 0.024 0.008 0.016 0.002 0.034 0.004 0.054 0.005 0.020 0 0.038 0.002 0.056 0.005 0.020 0.002 0.035 0.004 0.046 0.005 0.021 0 0.058 0.001 0.11 0.003 0.054 0.002 0.11 0.004 0.169 0.005 0.061 0.002 0.117 0.004 0.169 0.005h0.113c0.021 0.009 0.043 0.015 0.064 0.019 0.023 0.004 0.046 0.005 0.067 0.005h0.196c0.002 0 0.008-0.001 0.019-0.003 0.011-0.004 0.022-0.006 0.035-0.008 0.014-0.004 0.027-0.006 0.038-0.008 0.011-0.004 0.017-0.005 0.019-0.005h0.509c0.020-0.005 0.038-0.015 0.056-0.029 0.018-0.016 0.035-0.033 0.050-0.050l0.001-0.001c0.016-0.020 0.030-0.039 0.043-0.059 0.012-0.021 0.023-0.040 0.032-0.056 0.005-0.005 0.012-0.018 0.021-0.038 0.009-0.016 0.019-0.037 0.028-0.057l0.002-0.004c0.011-0.023 0.020-0.045 0.029-0.064s0.014-0.031 0.016-0.035c0.004-0.005 0.012-0.016 0.024-0.032s0.019-0.026 0.019-0.029c0.002-0.004 0.005-0.013 0.011-0.029s0.008-0.026 0.008-0.029c0.002-0.002 0.006-0.007 0.013-0.016l0.027-0.027c0.009-0.009 0.017-0.018 0.024-0.027s0.012-0.015 0.013-0.019c0.002-0.002 0.005-0.007 0.011-0.016 0.007-0.011 0.013-0.022 0.019-0.035 0.007-0.014 0.012-0.027 0.016-0.038 0.005-0.012 0.009-0.020 0.011-0.024 0.004-0.007 0.013-0.018 0.029-0.032 0.018-0.014 0.028-0.023 0.029-0.027 0.004-0.004 0.008-0.006 0.013-0.008 0.005-0.004 0.010-0.007 0.013-0.011 0.005-0.004 0.011-0.006 0.016-0.008 0.007 0.004 0.018 0.012 0.032 0.027s0.025 0.025 0.032 0.032v0.013c0 0.021-0.004 0.042-0.011 0.062-0.005 0.020-0.008 0.039-0.008 0.059 0 0.025 0.003 0.047 0.008 0.067 0.007 0.018 0.011 0.039 0.011 0.064v0.021c0 0.005-0.004 0.015-0.011 0.029-0.005 0.014-0.008 0.025-0.008 0.032v0.313c-0.002 0.021-0.004 0.049-0.008 0.083-0.004 0.032-0.011 0.063-0.021 0.094-0.011 0.029-0.026 0.054-0.046 0.075s-0.046 0.032-0.078 0.032h-0.013c-0.005-0.002-0.014-0.003-0.027-0.005l-0.038-0.006c-0.012-0.002-0.024-0.003-0.035-0.005-0.009-0.002-0.014-0.003-0.016-0.003l-0.016-0.011c-0.011-0.007-0.016-0.012-0.016-0.013h-0.029c-0.063 0.021-0.121 0.032-0.177 0.032s-0.113 0.004-0.174 0.011c-0.005 0-0.015 0.001-0.029 0.003-0.007 0.001-0.023 0.003-0.040 0.005l-0.008 0.001c-0.016 0.003-0.031 0.007-0.046 0.011s-0.023 0.006-0.027 0.008h-0.013c-0.032 0-0.063-0.004-0.091-0.013-0.027-0.009-0.058-0.013-0.094-0.013h-0.029c-0.014-0.002-0.031-0.002-0.051-0.002h-0.056c-0.018-0.002-0.033-0.003-0.046-0.003z">
            </path>
        </symbol>
        <symbol id="trash" viewBox="0 0 29 32">
            <path
                d="M21.224 7.273c-0.028-0.117-0.056-0.235-0.086-0.353-0.389-1.536-1.002-3.205-2.002-4.52-1.031-1.356-2.536-2.4-4.59-2.4s-3.56 1.044-4.59 2.4c-1 1.315-1.613 2.984-2.002 4.52-0.030 0.118-0.059 0.235-0.086 0.353h-2.36c-2.329 0-4.26 1.781-4.415 4.073l-1.082 16c-0.17 2.519 1.855 4.654 4.415 4.654h20.241c2.559 0 4.585-2.135 4.415-4.654l-1.081-16c-0.155-2.292-2.085-4.073-4.415-4.073h-2.36zM8.646 14.545c0.845 0 1.472-0.628 1.475-1.457 0-0.035 0.001-0.069 0.001-0.104 0.001-0.077 0.004-0.192 0.009-0.342 0.011-0.299 0.033-0.73 0.076-1.249 0.031-0.368 0.073-0.777 0.129-1.212h8.416c0.056 0.434 0.098 0.843 0.129 1.212 0.044 0.519 0.066 0.95 0.076 1.249 0.005 0.149 0.008 0.265 0.009 0.342 0.001 0.036 0.001 0.071 0.001 0.107 0 0 0 1.454 1.475 1.454s1.475-1.457 1.475-1.457c-0-0.051-0.001-0.102-0.002-0.153-0.001-0.094-0.005-0.228-0.011-0.397-0.012-0.338-0.037-0.815-0.085-1.387-0.025-0.298-0.057-0.624-0.097-0.97h1.86c0.776 0 1.42 0.594 1.472 1.358l1.082 16c0.057 0.84-0.618 1.551-1.472 1.551h-20.241c-0.853 0-1.528-0.712-1.472-1.551l1.082-16c0.052-0.764 0.695-1.358 1.472-1.358h1.86c-0.040 0.346-0.072 0.672-0.098 0.97-0.048 0.572-0.073 1.049-0.085 1.387-0.006 0.169-0.009 0.303-0.011 0.397-0.001 0.050-0.002 0.1-0.002 0.15-0.001 0.83 0.632 1.46 1.475 1.46zM10.908 7.273h7.275c-0.341-1.232-0.805-2.335-1.407-3.127-0.628-0.826-1.335-1.236-2.231-1.236s-1.602 0.41-2.231 1.236c-0.602 0.792-1.066 1.896-1.407 3.127z">
            </path>
        </symbol>
        <symbol id="search" viewBox="0 0 31 32">
            <path
                d="M22.315 21.043c1.714-2.143 2.739-4.862 2.739-7.82 0-6.919-5.609-12.527-12.527-12.527s-12.527 5.609-12.527 12.527c0 6.919 5.609 12.527 12.527 12.527 2.958 0 5.676-1.025 7.82-2.739l7.886 7.886c0.544 0.544 1.425 0.544 1.969 0s0.544-1.425 0-1.969l-7.886-7.886zM12.527 22.981c-5.389 0-9.758-4.369-9.758-9.758s4.369-9.758 9.758-9.758c5.389 0 9.757 4.369 9.757 9.758s-4.369 9.758-9.758 9.758z">
            </path>
        </symbol>
        <symbol id="user" viewBox="0 0 26 32">
            <path
                d="M13.091 16c4.017 0 7.273-3.582 7.273-8s-3.256-8-7.273-8c-4.017 0-7.273 3.582-7.273 8s3.256 8 7.273 8zM13.091 12.8c-2.41 0-4.364-2.149-4.364-4.8s1.954-4.8 4.364-4.8c2.41 0 4.364 2.149 4.364 4.8s-1.954 4.8-4.364 4.8z">
            </path>
            <path
                d="M23.422 19.067c-1.225-1.23-3.121-1.495-4.635-0.596-0.277 0.164-0.521 0.315-0.745 0.454-0.596 0.368-1.059 0.654-1.656 0.899-0.75 0.308-1.719 0.541-3.295 0.541-1.561 0-2.547-0.22-3.307-0.517-0.673-0.263-1.204-0.593-1.904-1.028-0.137-0.085-0.28-0.174-0.431-0.267-1.519-0.933-3.47-0.716-4.736 0.564-0.552 0.558-1.198 1.28-1.715 2.066-0.493 0.75-0.996 1.747-0.996 2.818v3.637c0 2.41 1.954 4.363 4.364 4.363h17.455c2.41 0 4.364-1.953 4.364-4.363v-3.637c0-1.085-0.517-2.096-1.019-2.852-0.527-0.795-1.185-1.523-1.741-2.081zM20.272 20.973c0.348-0.206 0.787-0.156 1.090 0.148 0.487 0.489 0.998 1.064 1.377 1.636 0.405 0.61 0.534 1.028 0.534 1.244v3.637c0 0.803-0.651 1.454-1.455 1.454h-17.455c-0.804 0-1.455-0.651-1.455-1.454v-3.637c0-0.211 0.124-0.621 0.518-1.22 0.369-0.562 0.869-1.13 1.352-1.618 0.303-0.306 0.764-0.366 1.146-0.131 0.12 0.074 0.243 0.15 0.368 0.229 0.702 0.438 1.487 0.928 2.431 1.297 1.156 0.452 2.51 0.716 4.366 0.716 1.891 0 3.246-0.284 4.401-0.759 0.837-0.344 1.575-0.8 2.226-1.203 0.192-0.119 0.377-0.233 0.554-0.338z">
            </path>
        </symbol>
        <symbol id="close" viewBox="0 0 32 32">
            <path fill="#754e29" style="fill: var(--color1, #754e29)"
                d="M0.885 0.885c-1.181 1.181-1.181 3.095 0 4.276l10.839 10.839-10.839 10.839c-1.181 1.181-1.181 3.095 0 4.276s3.095 1.181 4.276 0l10.839-10.839 10.839 10.839c1.181 1.181 3.095 1.181 4.276 0s1.181-3.095 0-4.276l-10.839-10.839 10.839-10.839c1.181-1.181 1.181-3.095 0-4.276s-3.095-1.181-4.276 0l-10.839 10.839-10.839-10.839c-1.181-1.181-3.095-1.181-4.276 0z">
            </path>
        </symbol>
    </defs>
</svg>